Coordinates
version=1
nRows=17
nColumns=24
inDegrees=yes

Units are S.I. units (second, meters, Newtons, ...)
Angles are in degrees.

endheader
time	pelvis_tilt	pelvis_list	pelvis_rotation	pelvis_tx	pelvis_ty	pelvis_tz	hip_flexion_r	hip_adduction_r	hip_rotation_r	knee_angle_r	ankle_angle_r	subtalar_angle_r	mtp_angle_r	hip_flexion_l	hip_adduction_l	hip_rotation_l	knee_angle_l	ankle_angle_l	subtalar_angle_l	mtp_angle_l	lumbar_extension	lumbar_bending	lumbar_rotation
      0.63383333	      4.22688814	     -2.55794377	      6.57398297	     -0.44968207	      0.90930048	      0.31808588	      5.66195456	      9.30221614	     -2.82873433	    -26.63161257	     18.91277957	     -0.21887308	      0.10461808	     15.85633866	     -7.08895925	     -4.53276016	    -76.65257132	      3.10503105	     -8.75509512	      2.80353013	    -13.30027261	      4.06789489	      0.23439103
      0.63800000	      4.14880072	     -2.32032372	      6.43619739	     -0.44416086	      0.91050572	      0.31831673	      4.99212943	      9.08890464	     -2.66410855	    -25.96851163	     18.92295694	     -0.09419875	      0.14654253	     16.51303198	     -6.71223741	     -4.73609018	    -76.17094309	      3.35105756	     -8.75624340	      2.78629775	    -13.22664203	      3.76572337	      0.51361224
      0.64216667	      4.05692857	     -2.07243736	      6.29026372	     -0.43863215	      0.91169553	      0.31853635	      4.33781294	      8.85689484	     -2.50195160	    -25.30141670	     18.84575710	      0.02251460	      0.16704372	     17.15543257	     -6.31311472	     -4.93179461	    -75.60273933	      3.62828785	     -8.71593754	      2.78483586	    -13.14035547	      3.46081680	      0.64121821
      0.64633333	      3.99649223	     -1.80843251	      6.12443646	     -0.43307890	      0.91293197	      0.31878143	      3.63766980	      8.61008853	     -2.31709951	    -24.61299724	     18.77665220	      0.12519461	      0.19157874	     17.72467128	     -5.90845844	     -5.15194962	    -74.93953709	      3.88255352	     -8.63528581	      2.78701672	    -13.08962244	      3.12957181	      0.82086631
      0.65050000	      3.98441464	     -1.55497877	      5.94766100	     -0.42748919	      0.91421773	      0.31905940	      2.86411737	      8.38285215	     -2.10853305	    -23.87761974	     18.72712688	      0.21288335	      0.24198462	     18.21092574	     -5.53503386	     -5.38566018	    -74.19831751	      4.12194425	     -8.53003360	      2.79444288	    -13.08789677	      2.80774288	      1.10960635
      0.65466667	      3.95172541	     -1.28819018	      5.75741693	     -0.42189690	      0.91545242	      0.31934147	      2.12168987	      8.13013846	     -1.90950624	    -23.15425029	     18.62500215	      0.29706355	      0.28712960	     18.69188317	     -5.14123875	     -5.61911070	    -73.37926870	      4.36566444	     -8.38842163	      2.80852968	    -13.06144224	      2.46768106	      1.31195843
      0.65883333	      3.94093349	     -1.02229044	      5.55671185	     -0.41629366	      0.91669140	      0.31962027	      1.34889769	      7.87579224	     -1.69891509	    -22.41170997	     18.51072103	      0.38007568	      0.33704624	     19.12039992	     -4.75414705	     -5.85662653	    -72.48421674	      4.60066647	     -8.22955061	      2.82905324	    -13.05690364	      2.13617307	      1.53464344
      0.66300000	      3.90386501	     -0.74382342	      5.33820034	     -0.41070923	      0.91785806	      0.31991061	      0.62335906	      7.59514169	     -1.50158795	    -21.69937561	     18.34280144	      0.47972548	      0.36595277	     19.55209807	     -4.34789014	     -6.09473707	    -71.51504577	      4.82644715	     -8.05288220	      2.84699415	    -13.02309042	      1.79317475	      1.69089084
      0.66716667	      3.91190664	     -0.47407697	      5.11372152	     -0.40510309	      0.91904605	      0.32022074	     -0.16566320	      7.32687941	     -1.28973929	    -20.95030967	     18.20090441	      0.56367219	      0.39951213	     19.90787258	     -3.96857898	     -6.33963960	    -70.47836446	      5.03744532	     -7.86261185	      2.86853038	    -13.03695221	      1.45011951	      1.89691308
      0.67133333	      3.97058400	     -0.22957605	      4.89206300	     -0.39947524	      0.92024564	      0.32055335	     -1.03330273	      7.09397184	     -1.05953451	    -20.14111766	     18.07889726	      0.60755963	      0.45865250	     20.19203224	     -3.63285197	     -6.57804776	    -69.39176596	      5.24221986	     -7.66883804	      2.90316180	    -13.10408839	      1.13466095	      2.19643498
      0.67550000	      3.98801509	      0.02139873	      4.65053688	     -0.39387642	      0.92133168	      0.32088310	     -1.83040632	      6.83667144	     -0.83489275	    -19.37321515	     17.90122928	      0.66303172	      0.52135648	     20.49860128	     -3.28294513	     -6.81506733	    -68.24084734	      5.43468873	     -7.46872337	      2.94123233	    -13.12371263	      0.80998171	      2.43651073
      0.67966667	      3.97422408	      0.28362130	      4.39319325	     -0.38830864	      0.92231804	      0.32121232	     -2.56031205	      6.55070922	     -0.64518344	    -18.66388275	     17.68639407	      0.75625999	      0.55772211	     20.81640883	     -2.91660418	     -7.05215668	    -67.02278187	      5.60723929	     -7.26590977	      2.96691020	    -13.10611284	      0.48033467	      2.60178027
      0.68383333	      4.04146589	      0.51187381	      4.14992094	     -0.38270906	      0.92334641	      0.32155211	     -3.41875991	      6.31352970	     -0.42579680	    -17.86258569	     17.53869516	      0.80756728	      0.62138399	     21.02992180	     -2.60366541	     -7.27048071	    -65.76105022	      5.76244515	     -7.09118501	      3.00373564	    -13.17638368	      0.19280410	      2.87991623
      0.68800000	      4.07185153	      0.73730542	      3.89483050	     -0.37714559	      0.92424574	      0.32189871	     -4.21183478	      6.06675595	     -0.21943858	    -17.09929010	     17.34421419	      0.86838434	      0.68995042	     21.26992340	     -2.29472902	     -7.49028017	    -64.45224641	      5.90156277	     -6.91826556	      3.04199440	    -13.20766406	     -0.10874283	      3.12816091
      0.69216667	      4.05636400	      0.96758008	      3.61943198	     -0.37162264	      0.92501009	      0.32224452	     -4.91212779	      5.79546022	     -0.04861524	    -16.41285634	     17.11709491	      0.96847449	      0.73139636	     21.53928554	     -1.97623632	     -7.70808507	    -63.08393298	      6.01555247	     -6.74940258	      3.06547830	    -13.18232580	     -0.40703643	      3.30023685
      0.69633333	      4.11999215	      1.16226184	      3.36732945	     -0.36607210	      0.92580025	      0.32258486	     -5.74243272	      5.57422283	      0.14754641	    -15.62925705	     16.95864723	      1.03038796	      0.80481734	     21.71110163	     -1.70812566	     -7.90154432	    -61.68334527	      6.10540532	     -6.63647899	      3.09788259	    -13.24791901	     -0.66748234	      3.58737831
      0.70050000	      4.13285497	      1.35469472	      3.09799129	     -0.36056943	      0.92643806	      0.32292718	     -6.47938721	      5.34038709	      0.32377450	    -14.90926472	     16.75622297	      1.11119522	      0.88627921	     21.92356894	     -1.44008119	     -8.09221085	    -60.23723479	      6.17204344	     -6.52444412	      3.12915268	    -13.25630346	     -0.92208141	      3.83850446
